<svg version="1" xmlns="http://www.w3.org/2000/svg" width="682.667" height="682.667" viewBox="0 0 512.000000 512.000000"><path d="M247.9 29.9c-2 1-6 3.1-9 4.8-3 1.7-8.3 4.6-11.9 6.5-3.6 2-8.5 4.7-11 6.1-9 5-41.7 23-48 26.5-3.6 1.9-11.6 6.4-17.7 9.8-6.2 3.4-12.2 6.5-13.3 6.9-1.1.3-2 1.1-2 1.6s-.4.9-.9.9c-.7 0-17.5 9-31.1 16.7-1.9 1.1-24.6 13.6-50.5 27.7-25.9 14.2-48.2 27.1-49.7 28.7-2.6 2.7-2.8 3.5-2.8 11.2 0 9.5 1.2 12.6 5.7 14.7 3.1 1.4 3.3 1.8 3.3 6.8 0 6.5 1.2 9 5.3 10.7 2.9 1.2 3.2 1.8 3.3 5.7.1 2.3.2 5.1.3 6.1.1 2.2 4.8 6.7 7 6.7 1.5 0 1.6 8.5 1.5 96.3-.1 52.9-.2 96.7-.3 97.3 0 .7-1.2 1.5-2.6 1.8-3.7.9-5.7 4.8-5.8 11.1-.1 4.3-.5 5.6-1.8 6-1 .3-2.9 1.5-4.3 2.6-2.3 1.8-2.6 2.8-2.6 8.5 0 5.6-.2 6.4-1.9 6.4-1.1 0-3.1 1.4-4.5 3.1-2.2 2.5-2.6 4.1-2.6 9.1 0 8.3 2.1 12.5 6.9 13.4 4.7.9 495.8.9 499.2 0 3.8-1.1 5.6-5.1 5.8-13.2.2-6.9.1-7.2-2.9-9.8-1.7-1.4-3.8-2.6-4.6-2.6-1 0-1.4-1.5-1.4-5.9 0-6.4-2.5-11.1-6.1-11.1-2.2 0-2 .3-2.5-6.8-.3-6.2-2.4-9.9-5.9-10.8-1.4-.3-2.6-.9-2.6-1.3-.1-.3-.2-44.1-.3-97.3l-.1-96.6 2.6-.6c3.7-.7 6-4.8 6.2-11.2.3-5.3.5-5.7 3.5-7 3.8-1.5 5.2-4.7 5.2-11.3 0-4.4.2-4.8 3.2-6.2 4.9-2.1 5.9-5 5.6-15.6-.4-11.2 1.6-9.3-23.3-22.8-3.3-1.8-18.8-10.4-34.5-19-15.7-8.7-31-17.1-34-18.7-3-1.7-6.8-3.8-8.5-4.8-1.6-.9-5.6-3.1-8.7-4.9-3.2-1.7-8.4-4.5-11.5-6.2-3.2-1.8-7.1-4-8.8-4.9-1.6-1-5.7-3.2-9-5-3.3-1.8-7.8-4.3-10-5.5-14.3-7.9-36.7-20.2-40.5-22.3-2.5-1.4-7-3.8-10-5.5-3-1.6-13.9-7.7-24.2-13.4-10.3-5.7-20.9-11.5-23.6-12.8-5.9-3-12.2-3.2-17.3-.6z"/></svg>